<?xml version="1.0" encoding="UTF-8"?>
<svg xmlns="http://www.w3.org/2000/svg" xmlns:xlink="http://www.w3.org/1999/xlink" version="1.1" id="Layer_1" x="0px" y="0px" style="enable-background:new 0 0 422.2 363.4;" xml:space="preserve" viewBox="-0.85 51.79 422.85 179.71">
<style type="text/css">
	.st0{fill:#2F55A5;}
	.st1{fill:#FBC096;}
	.st2{fill:#83DDF2;}
	.st3{fill:#FCC097;}
	.st4{fill:#F9C8DD;}
	.st5{fill:#0053CC;}
</style>
<g>
	<g>
		<path class="st0" d="M128.5,66.9"></path>
	</g>
</g>
<g>
	<path class="st1" d="M150.2,243.4"></path>
</g>
<g>
	<g>
		<path class="st2" d="M200.8,157.4c0.2,0.3,0.5,0.7,0.7,1.1c0.5,0.9,1.1,2.5,1.5,3.9l0.1,0.4l0.3-0.2    c13.2-10.3,20.7-25.6,20.7-41.8c0-29.8-25.1-54-56.1-54c-0.6,0-1.2,0-1.8,0l-0.4,0l-0.2,1.4l0.3,0.1c5.3,1.8,8.7,6.6,9.5,13.7    l0,0.1l0.1,0.1c2.2,1.5,4.8,2.5,7.2,3.5l0.1,0c0.7,0.3,1.5,0.6,2.2,0.9l0.5,0.2c1.9,0.8,3.9,1.6,4.7,3.7c1.1,3.2-0.3,8.2-0.9,10.3    l0,0.1c-0.1,0.3-0.1,0.5-0.2,0.7c-0.4,1.9-1.6,4.6-3.5,6.1c-3,2.4-9.5,3.1-13,2.2c-0.8-0.1-1.6-0.3-2.4-0.6    c-0.3-0.1-2.7-0.7-3.3-0.7c-2.2-0.1-3.5-0.2-5.5,0.1c-3.5,0.5-7.8,3-9,6.6c-1,3.4-0.1,7,0.7,10.6c0.7,2.9,1.4,6,1.1,8.9    c-0.3,4.7-2.8,10.2-7.4,16.5c-4.1,5.5-9,10.3-11.6,12.7l-0.2,0.2l0.3,0.2c9.6,6.7,21,10.3,32.8,10.3c1.8,0,3.6-0.1,5.5-0.3l0.2,0    l0-0.2c-0.4-6.3,1.5-11.6,3.1-15l0.1-0.1l-0.1-0.1c-1.1-1.2-2.3-2.8-3.3-5c-0.3-0.6-0.6-1.3-0.9-1.9c-0.8-1.8-1.6-3.5-3.1-4.4    c-3.8-2-8.2-5.1-8.3-10.4c-0.1-1.6-0.7-3.1-1.4-4.8c-0.8-1.8-1.6-3.8-1.6-6c-0.3-3.2-0.9-9.8,4.3-11.8l0.2-0.1    c3.1-0.7,6.5,1.4,8.7,3.2c2.8,2.3,5.1,5.2,6.3,7.1c0.5,0.7,0.8,1.4,1.1,2.1c0.3,0.7,0.6,1.3,0.8,1.5l0.1,0.1l0.2,0    c4.8-0.9,9.1-0.9,12.9,0c0.4,0.1,0.8,0.2,1.1,0.3c0.2,0.1,0.4,0.1,0.6,0.2l0.2,0.1l0.1-0.2c0.1-0.1,0.1-0.3,0.2-0.6    c1.2-3.4,3.8-6.3,8.2-8.9l0.1-0.1c6.6-3.2,11.2-4.7,13.8-2.5c2,1.8,2,5.3,0,11.4c-0.4,1.2-0.9,2.3-1.4,3.3c-0.9,2-1.8,3.8-2,6.5    l0,0.1c-0.9,5.7-4.3,6.9-6.7,7.7c-1.4,0.5-2.1,0.8-2.4,1.5l0,0.1c-0.8,1.8-1.5,3.6-2.1,5.2c-0.5,1.3-0.9,2.5-1.4,3.5l-0.2,0.5    l0.1,0.1C200.6,157,200.7,157.2,200.8,157.4z"></path>
	</g>
	<path class="st2" d="M420.2,80.9c0-8.8-4.5-13.3-13.3-13.3h-43.9c-8.8,0-13.3,4.5-13.3,13.3v78.6c0,8.8,4.5,13.3,13.3,13.3h43.9   c8.8,0,13.3-4.5,13.3-13.3v-1.8c0-8.8-4.5-13.3-13.3-13.3h-24.3v-13.1h21.6c8.8,0,13.3-3.7,13.3-11v-0.2c0-5-2.3-10.9-13.3-10.9   h-21.6v-13h24.3c8.8,0,13.3-4.5,13.3-13.3V80.9z"></path>
	<path class="st2" d="M330,109.9c0-35.1-21.1-42.2-52.9-42.2h-21.3c-8.8,0-13.3,4.5-13.3,13.3v78.6c0,8.8,4.5,13.3,13.3,13.3h6.4   c8.8,0,13.3-4.5,13.3-13.3v-8.5h2c20,0,33.7-3.4,41.8-10.5C326.6,134.3,330,124.5,330,109.9z M283.7,123.9h-8.1V95.1h8.1   c8.3,0,12.5,4.8,12.5,14.2C296.2,115.9,294,123.9,283.7,123.9z"></path>
	<path class="st2" d="M73.9,172.8h6.4c8.8,0,13.3-4.5,13.3-13.3V80.9c0-8.8-4.5-13.3-13.3-13.3h-6.4c-8.8,0-13.3,4.5-13.3,13.3v24.9   H35.9V80.9c0-8.8-4.5-13.3-13.3-13.3h-6.4c-8.8,0-13.3,4.5-13.3,13.3v78.6c0,8.8,4.5,13.3,13.3,13.3h6.4c8.8,0,13.3-4.5,13.3-13.3   v-25.1h24.7v25.1C60.6,168.4,65,172.8,73.9,172.8z"></path>
</g>
<g>
	<path class="st3" d="M215,121.6c-4.2,1.5-7.2,3.9-8,4.6c-3.1,2.6-4,4.9-4.7,6.6l-0.1,0.2c-0.3,0.7-1.2,1.1-1.9,0.8   c-0.7-0.3-1.1-1.1-0.8-1.9l0.1-0.2c0.7-1.8,1.9-4.6,5.5-7.7c0.8-0.7,3.8-3.1,8-4.7l1.7-0.7l-1.9,0.2c-2.7,0.3-7,2.4-8.6,3.2   c-3.7,2.2-5.9,4.5-6.9,7.3c-1.1,2.8-2.7,2.9-4.7,2.2c-0.3-0.1-0.6-0.2-0.9-0.3c-3.4-0.8-7.3-0.8-11.7,0c-2.4,0.6-3.5-1.7-4.2-3.3   c-0.3-0.6-0.6-1.2-0.9-1.7l0-0.1c-1.9-3-6.2-7.8-9.8-8.9l-1.7-0.5l1.5,1c3.1,2,4.7,4.4,5.7,6c2.4,4,3.9,7.4,4.2,8.7   c0.2,0.8-0.2,1.6-1,1.8c-0.8,0.2-1.6-0.2-1.8-1c-0.3-0.9-1.6-4.1-3.9-8c-1.2-1.9-3-4.3-6.6-6.1l-0.2-0.1l-0.1,0.3   c-0.7,1.8-0.6,4.4-0.4,6.7l0,0.1c0,1.7,0.7,3.3,1.4,4.9c0.8,1.8,1.6,3.7,1.6,5.8c0,3.8,3.5,6.2,6.8,7.9l0.1,0   c2.3,1.4,3.3,3.7,4.2,5.7c0.3,0.6,0.6,1.3,0.9,1.8l0,0.1c0.9,2,2,3.4,3.1,4.6l0.2,0.3c1.5,1.8,4.6,3.7,9,3.7c0.5,0,1,0,1.5-0.1   c4.9-0.5,6.7-2.8,8-5.3c0.5-1,1-2.3,1.5-3.8c0.6-1.7,1.3-3.6,2.2-5.4c0.7-1.9,2.5-2.6,4.1-3.1l-0.1-0.2l0.1,0.2   c2.1-0.7,4.2-1.5,4.8-5.4c0.2-3.2,1.3-5.4,2.3-7.5c0.4-0.9,0.9-1.9,1.3-3c0.7-2.2,1.2-4.1,1.3-5.5l0-0.4L215,121.6z"></path>
	<path class="st3" d="M200.3,164.5c-0.1-1.4-0.6-3.4-1.3-4.7l-0.2-0.3l-0.2,0.3c-2,2.4-4.8,3.7-8.5,4.1c-0.6,0.1-1.2,0.1-1.8,0.1   c-3.3,0-6.5-1-9-2.7l-0.2-0.2l-0.1,0.3c-1,2.2-2.6,6.8-2.3,12.3l0,0.3l0.3,0c8.3-1.3,16.4-4.4,23.3-9.1l0.1-0.1L200.3,164.5z"></path>
</g>
<g>
	<path class="st4" d="M187.8,92.6l-0.2,0c-0.6,0-1.1,0-1.8,0l0,0c-0.4,0.1-0.6,0.1-0.9,0.2l-0.2,0.1l-0.1,0   c-0.1,0.1-0.1,0.1-0.2,0.2l-0.1,0.1l0,0l-0.1,0.2l0,0c0,0.1,0,0.1,0,0.3c0,0.2,0.1,0.5,0.2,0.8c0.1,0.2,0.2,0.4,0.4,0.7l0.2,0.2   c0.2,0.2,0.4,0.4,0.6,0.6c0.3,0.2,0.5,0.4,0.9,0.5c0.1,0,0.2,0.1,0.3,0.1l0.3,0.1l0.1-0.3c0.3-1.3,0.6-2.6,0.6-3.8L187.8,92.6z"></path>
	<path class="st4" d="M186.3,99.7c-2.7-0.7-5-3.4-4.9-6.1c0-1.8,1.2-3.1,3.2-3.7l0.7-0.2l-0.6-0.3c-1.1-0.5-2.2-0.9-3.3-1.4   c-2.8-1.1-5.8-2.3-8.2-4.2c-0.4-0.4-0.5-1-0.5-1.6c0-0.7-0.2-1.4-0.3-2.1c-0.7-3.7-2.5-6.5-5.1-8.2c-3-1.9-7.1-2.4-11.8-1.3l-0.1,0   l-0.2,0.2l0,0.1c0,0.6-0.3,1.2-0.8,1.4c-0.6,0.3-1.2,0.2-1.7-0.3c-0.4-0.4-0.5-0.8-0.3-1.3c0.3-1,0.6-1.9,0.9-2.8   c0.7-2.1,1.3-4.1,1.7-6.3c0.1-0.4,0.2-0.7,0.3-1.2c0.2-1,0.5-2,0.6-3.1l0.1-0.7l-0.5,0.4c-5.1,4.6-8.9,10.4-10.1,15.5   c-0.1,0.6-0.6,1-1.2,1.1c-0.6,0.1-1.2-0.1-1.5-0.7c-0.4-0.5-0.2-1.2,0-1.8c0-0.2,0.1-0.3,0.1-0.5c0.8-3,3.4-8.3,8-13.2l1.4-1.5   l-1.7,1.1c-6.2,4.1-10.7,10.6-12.2,17.5l0,0c-16.4,10-26.2,27.1-26.2,45.7c0,16.1,7.4,31.3,20.4,41.6l0.2,0.1l0.2-0.2   c6.1-5.9,18.7-18.1,18.6-29.4c-0.1-2.1-0.6-4.4-1.1-6.8c-1.2-5.7-2.5-11.6,1.9-15.7l0.4-0.3l-0.5-0.1c-3.3-0.7-7.1-2-10.1-6.2   c-0.5-0.8-0.1-1.6,0.4-1.9c0.6-0.4,1.5-0.4,2.1,0.4c3,4.2,9,5.8,12.7,4.6l0.1,0c2-0.9,4.1-1.3,7.3-1.2l0.5,0l-0.3-0.4   c-1.3-2-1.9-4.8-2-6c-0.1-0.4,0.1-0.8,0.3-1.1c0.2-0.3,0.6-0.5,1-0.6c0.4-0.1,0.8,0,1.1,0.3c0.3,0.2,0.5,0.6,0.6,0.9   c0.1,1.6,0.9,5,3,6.4c0.8,0.8,2.5,1.5,4.6,1.8l0.1,0c1.2,0.2,2.5,0.3,4,0.3c0,0,0,0,0,0l0.1,0c2.5-0.3,4.7-0.6,6.8-2.1   c1.4-1.4,1.9-3.3,2.3-5.2l0-0.2L186.3,99.7z"></path>
	<path class="st4" d="M162.6,60l0-0.5L162,60c-0.3,0.3-0.6,0.6-1,0.9c-1.1,1-2.3,2.1-3.6,2.8l-0.1,0.1l0,0.1   c-0.2,1.2-0.5,2.3-0.8,3.4l-0.1,0.4l0.4-0.1c2.1-0.3,3.6-0.4,5.4-0.1l0.3,0l0-0.3C162.6,65,162.8,62.4,162.6,60z"></path>
</g>
<g>
	<g>
		<path class="st0" d="M134.3,69.9"></path>
	</g>
</g>
<g>
	<path class="st1" d="M180.8,151.1"></path>
</g>
<g>
	<g>
		<path class="st5" d="M406.9,174.3h-43.9c-9.7,0-14.8-5.1-14.8-14.8V80.9c0-9.7,5.1-14.8,14.8-14.8h43.9c9.7,0,14.8,5.1,14.8,14.8    v1.9c0,9.7-5.1,14.8-14.8,14.8H384v10h20.1c12.9,0,14.8,7.8,14.8,12.4v0.2c0,5.7-2.6,12.5-14.8,12.5H384v10.1h22.8    c9.7,0,14.8,5.1,14.8,14.8v1.8C421.7,169.2,416.6,174.3,406.9,174.3z M362.9,69.1c-8.1,0-11.8,3.7-11.8,11.8v78.6    c0,8,3.7,11.8,11.8,11.8h43.9c8.1,0,11.8-3.7,11.8-11.8v-1.8c0-8.1-3.7-11.8-11.8-11.8H381v-16.1h23.1c5.1,0,11.8-1,11.8-9.5v-0.2    c0-6.2-4-9.4-11.8-9.4H381v-16h25.8c8.1,0,11.8-3.7,11.8-11.8v-1.9c0-8.1-3.7-11.8-11.8-11.8H362.9z"></path>
	</g>
	<g>
		<path class="st5" d="M262.2,174.3h-6.4c-9.7,0-14.8-5.1-14.8-14.8V80.9c0-9.7,5.1-14.8,14.8-14.8h21.3c18.6,0,30.7,2.5,39.2,8.2    c10.2,6.8,15.2,18.5,15.2,35.5c0,15.1-3.6,25.2-11.2,31.9c-8.4,7.3-22.3,10.8-42.7,10.8H277v7C277,169.2,271.9,174.3,262.2,174.3z     M255.8,69.1c-8.1,0-11.8,3.7-11.8,11.8v78.6c0,8,3.7,11.8,11.8,11.8h6.4c8.1,0,11.8-3.7,11.8-11.8v-10h3.5    c19.6,0,33-3.3,40.8-10.1c6.9-6,10.2-15.4,10.2-29.6c0-16-4.5-26.8-13.9-33c-8-5.3-19.6-7.7-37.5-7.7H255.8z M283.7,125.4H274    V93.6h9.6c6.4,0,14,2.7,14,15.7C297.7,119.7,292.7,125.4,283.7,125.4z M277,122.4h6.6c7.3,0,11-4.4,11-13.1    c0-8.5-3.6-12.7-11-12.7H277V122.4z"></path>
	</g>
	<g>
		<path class="st5" d="M80.3,174.3h-6.4c-9.7,0-14.8-5.1-14.8-14.8v-23.6H37.4v23.6c0,9.7-5.1,14.8-14.8,14.8h-6.4    c-9.7,0-14.8-5.1-14.8-14.8V80.9c0-9.7,5.1-14.8,14.8-14.8h6.4c9.7,0,14.8,5.1,14.8,14.8v23.4h21.7V80.9c0-9.7,5.1-14.8,14.8-14.8    h6.4c9.7,0,14.8,5.1,14.8,14.8v78.6C95.1,169.2,90,174.3,80.3,174.3z M34.4,132.9h27.7v26.6c0,8,3.7,11.8,11.8,11.8h6.4    c8.1,0,11.8-3.7,11.8-11.8V80.9c0-8.1-3.7-11.8-11.8-11.8h-6.4c-8.1,0-11.8,3.7-11.8,11.8v26.4H34.4V80.9    c0-8.1-3.7-11.8-11.8-11.8h-6.4c-8,0-11.8,3.7-11.8,11.8v78.6c0,8,3.7,11.8,11.8,11.8h6.4c8.1,0,11.8-3.7,11.8-11.8V132.9z"></path>
	</g>
	<path class="st5" d="M135.5,73.2c-16.6,10.6-26.4,28.3-26.4,47.4c0,31.4,26.5,56.9,59,56.9s59-25.5,59-56.9   c0-31.4-26.5-56.9-59-56.9c-0.4,0-0.8,0-1.3,0l-0.6,0l0-0.3c0-0.9,0-2.1,0-2.7c0-1.2-0.1-3.1-1.5-4c-0.9-0.5-2-0.4-3.1,0.3   c-0.8,0.5-1.4,1.1-2.1,1.7c-0.2,0.2-0.4,0.4-0.6,0.5l-0.5,0.5l0.1-0.7c0.5-2.5,0.5-5.5-1-6.7c-0.9-0.7-2.3-0.7-4,0.1   c-4.9,1.9-9.7,5.8-13.4,11.1C138,66.5,136.4,70,135.5,73.2 M200.2,164.8c-6.9,4.7-15,7.8-23.3,9.1l-0.3,0l0-0.3   c-0.3-5.5,1.3-10.1,2.3-12.3l0.1-0.3l0.2,0.2c2.5,1.7,5.6,2.7,9,2.7c0.6,0,1.2,0,1.8-0.1c3.7-0.3,6.5-1.7,8.5-4.1l0.2-0.3l0.2,0.3   c0.8,1.3,1.2,3.4,1.3,4.7l0,0.1L200.2,164.8z M175,132.5c-0.4-1.3-1.8-4.7-4.2-8.7c-1-1.6-2.7-4-5.7-6l-1.5-1l1.7,0.5   c3.6,1.1,7.9,5.9,9.8,8.9l0,0.1c0.3,0.4,0.6,1.1,0.9,1.7c0.7,1.5,1.7,3.8,4.2,3.3c4.4-0.8,8.3-0.8,11.7,0c0.3,0.1,0.6,0.2,0.9,0.3   c2.1,0.7,3.6,0.6,4.7-2.2c0.9-2.8,3.2-5.2,6.9-7.3c1.6-0.8,6-2.9,8.6-3.2l1.9-0.2l-1.7,0.7c-4.2,1.7-7.2,4-8,4.7   c-3.7,3.1-4.8,5.9-5.5,7.7l-0.1,0.2c-0.3,0.7,0.1,1.6,0.8,1.9c0.7,0.3,1.6-0.1,1.9-0.8l0.1-0.2c0.7-1.7,1.6-4,4.7-6.6   c0.8-0.7,3.9-3.1,8-4.6l0.4-0.1l0,0.4c-0.1,1.4-0.6,3.3-1.3,5.5c-0.4,1.1-0.8,2-1.3,3c-1,2.1-2.1,4.3-2.3,7.5   c-0.6,3.9-2.8,4.7-4.8,5.4c-1.6,0.6-3.4,1.2-4.1,3.1c-0.9,1.9-1.6,3.8-2.2,5.4c-0.6,1.5-1,2.8-1.5,3.8c-1.2,2.5-3.1,4.9-8,5.3   c-0.5,0-1,0.1-1.5,0.1c-4.4,0-7.5-1.9-9-3.7l-0.2-0.3c-1.1-1.2-2.2-2.6-3.1-4.6l0-0.1c-0.3-0.6-0.6-1.2-0.9-1.8   c-0.9-2-2-4.3-4.2-5.7l-0.1,0c-3.3-1.8-6.7-4.1-6.8-7.9c-0.1-2.2-0.9-4-1.6-5.8c-0.7-1.7-1.4-3.3-1.4-4.9l0-0.1   c-0.2-2.3-0.3-4.9,0.4-6.7l0.1-0.3l0.2,0.1c3.6,1.8,5.4,4.2,6.6,6.1c2.3,3.8,3.7,7,3.9,8c0.2,0.8,1,1.2,1.8,1   C174.7,134.1,175.2,133.3,175,132.5z M165.8,66.7l0.4,0c0.6,0,1.2,0,1.8,0c30.9,0,56.1,24.2,56.1,54c0,16.3-7.5,31.5-20.7,41.8   l-0.3,0.2l-0.1-0.4c-0.3-1.4-1-3-1.5-3.9c-0.2-0.4-0.5-0.7-0.7-1.1c-0.1-0.2-0.2-0.3-0.3-0.4l-0.1-0.1l0.2-0.5   c0.4-1,0.9-2.1,1.4-3.5c0.6-1.6,1.3-3.5,2.1-5.2l0-0.1c0.2-0.7,1-1,2.4-1.5c2.5-0.9,5.8-2.1,6.7-7.7l0-0.1c0.2-2.7,1.1-4.5,2-6.5   c0.5-1,1-2,1.4-3.3c2-6.1,2-9.6,0-11.4c-2.5-2.2-7.2-0.7-13.8,2.5l-0.1,0.1c-4.3,2.5-7,5.4-8.2,8.9c-0.1,0.3-0.2,0.4-0.2,0.6   l-0.1,0.2l-0.2-0.1c-0.2,0-0.4-0.1-0.6-0.2c-0.3-0.1-0.6-0.2-1.1-0.3c-3.8-0.9-8.1-0.9-12.9,0l-0.2,0l-0.1-0.1   c-0.2-0.2-0.4-0.8-0.8-1.5c-0.3-0.7-0.7-1.5-1.1-2.1c-1.2-1.8-3.5-4.8-6.3-7.1c-2.2-1.9-5.6-3.9-8.7-3.2l-0.2,0.1   c-5.2,2-4.6,8.6-4.3,11.8c0.1,2.2,0.9,4.1,1.6,6c0.7,1.6,1.4,3.2,1.4,4.8c0.1,5.3,4.4,8.4,8.3,10.4c1.5,0.9,2.3,2.6,3.1,4.4   c0.3,0.6,0.6,1.3,0.9,1.9c1,2.2,2.3,3.8,3.3,5l0.1,0.1l-0.1,0.1c-1.6,3.4-3.4,8.7-3.1,15l0,0.2l-0.2,0c-1.8,0.2-3.7,0.3-5.5,0.3   c-11.9,0-23.2-3.6-32.8-10.3l-0.3-0.2l0.2-0.2c2.6-2.4,7.5-7.2,11.6-12.7c4.7-6.3,7.2-11.9,7.4-16.5c0.3-2.9-0.4-5.9-1.1-8.9   c-0.8-3.5-1.7-7.2-0.7-10.6c1.2-3.6,5.6-6.1,9-6.6c2-0.3,3.3-0.2,5.5-0.1c0.6,0,3,0.6,3.3,0.7c0.8,0.3,1.6,0.5,2.4,0.6   c3.6,0.9,10,0.2,13-2.2c1.9-1.4,3-4.2,3.5-6.1c0-0.2,0.1-0.4,0.2-0.7l0-0.1c0.6-2.1,2-7.1,0.9-10.3c-0.8-2.1-2.8-2.9-4.7-3.7   l-0.5-0.2c-0.7-0.3-1.5-0.6-2.2-0.9l-0.1,0c-2.5-1-5-2-7.2-3.5l-0.1-0.1l0-0.1c-0.8-7.1-4.2-11.9-9.5-13.7l-0.3-0.1L165.8,66.7z    M184.3,93.6l0.1-0.2l0,0l0.1-0.1c0.1-0.1,0.1-0.1,0.2-0.2l0.1,0l0.2-0.1c0.3-0.1,0.5-0.2,0.9-0.2c0.6-0.1,1.1-0.1,1.8-0.1l0.2,0   l0,0.2c0,1.2-0.3,2.5-0.6,3.8l-0.1,0.3l-0.3-0.1c-0.1,0-0.2-0.1-0.3-0.1c-0.3-0.2-0.6-0.3-0.9-0.5c-0.2-0.2-0.5-0.4-0.6-0.6   l-0.2-0.2c-0.2-0.2-0.3-0.5-0.4-0.7c-0.1-0.2-0.2-0.5-0.2-0.8l0,0l0,0C184.3,93.8,184.3,93.7,184.3,93.6L184.3,93.6z M156.4,67.3   c0.3-1.1,0.6-2.2,0.8-3.4l0-0.1l0.1-0.1c1.4-0.7,2.5-1.8,3.6-2.8c0.3-0.3,0.7-0.6,1-0.9l0.6-0.4l0,0.5c0.2,2.4,0,5-0.3,7.2l0,0.3   l-0.3,0c-1.8-0.3-3.3-0.2-5.4,0.1l-0.4,0.1L156.4,67.3z M138.1,74.9L138.1,74.9c1.5-6.9,6-13.5,12.2-17.5l1.7-1.1l-1.4,1.5   c-4.6,4.9-7.2,10.2-8,13.2c0,0.1-0.1,0.3-0.1,0.5c-0.2,0.6-0.4,1.2,0,1.8c0.3,0.5,0.9,0.8,1.5,0.7c0.6-0.1,1.1-0.5,1.2-1.1   c1.2-5,4.9-10.8,10.1-15.5l0.5-0.4l-0.1,0.7c-0.1,1.1-0.4,2.1-0.6,3.1c-0.1,0.4-0.2,0.8-0.3,1.2c-0.4,2.2-1.1,4.2-1.7,6.3   c-0.3,0.9-0.6,1.8-0.9,2.8c-0.1,0.5,0,1,0.3,1.3c0.5,0.5,1.2,0.6,1.7,0.3c0.5-0.3,0.8-0.8,0.8-1.4l0-0.1l0.2-0.2l0.1,0   c4.7-1.1,8.8-0.7,11.8,1.3c2.7,1.7,4.4,4.5,5.1,8.2c0.2,0.7,0.3,1.4,0.3,2.1c0,0.6,0.1,1.2,0.5,1.6c2.4,1.9,5.4,3.1,8.2,4.2   c1.1,0.4,2.2,0.9,3.3,1.4l0.6,0.3l-0.7,0.2c-2,0.6-3.1,1.9-3.2,3.7c0,2.6,2.2,5.4,4.9,6.1l0.2,0.1l0,0.2c-0.4,1.9-0.9,3.8-2.3,5.2   c-2,1.5-4.3,1.9-6.8,2.1l-0.1,0c0,0,0,0,0,0c-1.5,0-2.8-0.1-4-0.3l-0.1,0c-2.1-0.3-3.8-1-4.6-1.8c-2.1-1.4-2.9-4.8-3-6.4   c-0.1-0.4-0.2-0.7-0.6-0.9c-0.3-0.2-0.7-0.3-1.1-0.3c-0.4,0.1-0.7,0.3-1,0.6c-0.2,0.3-0.3,0.7-0.3,1.1c0.1,1.3,0.7,4,2,6l0.3,0.4   l-0.5,0c-3.1-0.1-5.3,0.3-7.3,1.2l-0.1,0c-3.7,1.1-9.8-0.4-12.7-4.6c-0.5-0.8-1.4-0.8-2.1-0.4c-0.6,0.4-0.9,1.1-0.4,1.9   c3,4.2,6.8,5.5,10.1,6.2l0.5,0.1l-0.4,0.3c-4.4,4.1-3.1,10-1.9,15.7c0.5,2.4,1,4.7,1.1,6.8c0.1,11.3-12.5,23.5-18.6,29.4l-0.2,0.2   l-0.2-0.1c-13-10.3-20.4-25.5-20.4-41.6C111.9,102,121.7,84.9,138.1,74.9z"></path>
	<path class="st5" d="M162.8,84.5c-0.3,1.7,0.2,3.2,1.3,4.3c0.6,0.6,1.5,0.8,2.2,0.6c0.6-0.2,1.1-0.6,1.4-1.2c0.3-0.6,0.3-1.3,0.1-2   c-0.3-0.8-0.9-1.5-1.6-1.8l-0.4-0.1l0.3-0.4c0.1-0.1,0.2-0.2,0.2-0.3c0,0,0.2-0.2,0.3-0.2l0.1,0c0.1,0,0.1-0.1,0.2-0.1   c0.3-0.2,0.6-0.6,0.7-1c0.1-0.3,0-0.7-0.2-1c-0.3-0.4-0.8-0.7-1.2-0.7c-0.2,0-0.5,0.1-0.7,0.2C164,81.7,163,83,162.8,84.5z"></path>
	<path class="st5" d="M174,97.7c1.1,0,1.7-0.9,1.7-1.7c0-0.8-0.6-1.7-1.7-1.7c-1.1,0-1.7,0.9-1.7,1.7   C172.3,96.9,172.9,97.7,174,97.7z"></path>
	<path class="st5" d="M177.6,101.1c0.5,0,0.9-0.2,1.2-0.5c0.3-0.3,0.4-0.7,0.4-1.2c0-0.8-0.6-1.7-1.7-1.7c-1.1,0-1.7,0.9-1.7,1.7   C175.9,100.3,176.5,101.1,177.6,101.1z"></path>
	<path class="st5" d="M173.4,102.8c1.1,0,1.7-0.9,1.7-1.7c0-0.8-0.6-1.7-1.7-1.7c-0.5,0-0.9,0.2-1.2,0.5c-0.3,0.3-0.4,0.7-0.4,1.2   C171.8,101.9,172.3,102.8,173.4,102.8z"></path>
	<path class="st5" d="M180.5,139.3c0-0.1,0.1-0.4,0.3-0.6c0.3-0.2,0.6-0.3,0.7-0.3c0.3,0,0.6-0.1,0.9-0.4c0.2-0.2,0.3-0.5,0.3-0.9   c0-0.7-0.6-1.2-1.3-1.2c-0.5,0-1.4,0.1-2.3,0.9c-0.8,0.7-1,1.6-1.1,2c-0.1,0.7,0.3,1.3,1,1.4C179.8,140.4,180.4,140,180.5,139.3z"></path>
	<path class="st5" d="M190.3,142c-0.2,0.6-0.2,1.2,0.1,1.8c0.2,0.6,0.7,1,1.2,1.1c0.2,0.1,0.4,0.1,0.6,0.1c0.9,0,1.8-0.7,2.2-1.7   c0.4-1.3-0.2-2.6-1.3-2.9c-0.2-0.1-0.4-0.1-0.6-0.1c-0.4,0-0.7,0.1-1.1,0.3C190.8,140.9,190.5,141.4,190.3,142z"></path>
	<path class="st5" d="M193.6,138.1c0.2,0.2,0.5,0.4,0.9,0.4c0.1,0,0.4,0,0.7,0.3c0.3,0.2,0.3,0.5,0.3,0.6c0.1,0.7,0.7,1.1,1.4,1   c0.7-0.1,1.1-0.8,1-1.4c-0.1-0.5-0.3-1.3-1.1-2c-0.8-0.7-1.7-0.9-2.3-0.9c-0.7,0-1.2,0.5-1.2,1.2   C193.2,137.5,193.3,137.8,193.6,138.1z"></path>
	<path class="st5" d="M195.8,152.5c0-0.3,0-0.6-0.2-0.8c-0.2-0.2-0.4-0.4-0.7-0.4h0c-0.3,0-0.6,0-0.8,0.2c-0.2,0.2-0.4,0.4-0.4,0.7   c-0.3,2.3-1.4,2.6-2.3,2.6c-0.7,0-1.4-0.3-1.8-0.7c-0.4-0.5-0.6-1.2-0.6-2.2l0-0.1l0.2-0.1c1.5-0.5,2.2-1.8,2.2-2.7   c0-0.5-0.2-0.8-0.4-1.1c-0.5-0.5-1.5-0.7-3.1-0.7c-1.6,0-2.6,0.3-3.1,0.8c-0.3,0.3-0.4,0.7-0.4,1.1c0,0.9,0.9,2,2.3,2.5l0.1,0   l0,0.1c0.1,0.9-0.1,1.7-0.6,2.1c-0.4,0.5-1.1,0.7-1.8,0.7c-0.9,0-2-0.3-2.3-2.6c0-0.3-0.2-0.5-0.4-0.7s-0.5-0.2-0.8-0.2   c-0.3,0-0.5,0.2-0.7,0.4c-0.2,0.2-0.2,0.5-0.2,0.8c0.5,3.8,3,4.4,4.4,4.4c1.3,0,2.5-0.5,3.3-1.4l0.1-0.1l0.1,0.1   c0.8,0.9,2,1.4,3.3,1.4C192.8,156.9,195.3,156.3,195.8,152.5z"></path>
	<line class="st5" x1="173.5" y1="173" x2="173.4" y2="173"></line>
	<path class="st5" d="M181.6,143.4c0.3,1,1.2,1.7,2.2,1.7c0.2,0,0.4,0,0.6-0.1c0.5-0.2,1-0.6,1.2-1.1c0.2-0.6,0.3-1.2,0.1-1.8   c-0.2-0.6-0.6-1.1-1.1-1.4c-0.3-0.2-0.7-0.3-1.1-0.3c-0.2,0-0.4,0-0.6,0.1C181.8,140.8,181.2,142.1,181.6,143.4z"></path>
	<g>
		<path class="st5" d="M15.9,200.4L15.9,200.4c-0.3-0.7-0.9-1.1-1.6-1.1h-0.5c-0.7,0-1.3,0.4-1.6,1.1L-0.7,229c-0.2,0.5-0.2,1,0,1.3    c0.2,0.3,0.7,0.5,1.2,0.5H1c0.7,0,1.3-0.4,1.6-1.1l2.8-6.3h17.4l2.8,6.3c0.3,0.7,0.9,1.1,1.6,1.1h0.5c0.5,0,0.9-0.2,1.2-0.5    c0.2-0.4,0.2-0.8,0-1.3L15.9,200.4z M21.4,220.4H6.8l7.3-16.6L21.4,220.4z"></path>
		<path class="st5" d="M63.1,199.3h-0.3c-0.9,0-1.5,0.6-1.5,1.5v24.7l-18.4-25.3c-0.4-0.6-0.9-0.8-1.6-0.8h-0.8    c-0.9,0-1.5,0.6-1.5,1.5v28.6c0,0.9,0.6,1.5,1.5,1.5h0.3c0.9,0,1.5-0.6,1.5-1.5v-24.8l18.5,25.5c0.4,0.6,0.9,0.8,1.6,0.8h0.7    c0.9,0,1.5-0.6,1.5-1.5v-28.6C64.5,199.9,64,199.3,63.1,199.3z"></path>
		<path class="st5" d="M79.7,199.3h-0.3c-0.9,0-1.5,0.6-1.5,1.5v28.6c0,0.9,0.6,1.5,1.5,1.5h0.3c0.9,0,1.5-0.6,1.5-1.5v-28.6    C81.2,199.9,80.6,199.3,79.7,199.3z"></path>
		<path class="st5" d="M125.9,200.6c-0.2-0.8-0.7-1.3-1.6-1.3h-1c-0.8,0-1.4,0.4-1.6,1.1l-9.6,26l-9.6-26c-0.2-0.7-0.8-1.1-1.6-1.1    h-1c-0.8,0-1.4,0.5-1.6,1.3l-5.9,28.6c-0.1,0.6,0.1,1,0.3,1.2c0.2,0.2,0.5,0.5,1.1,0.5h0.4c0.8,0,1.4-0.5,1.5-1.3l5.1-24.6    l9.2,24.7c0.2,0.7,0.8,1.1,1.6,1.1h1c0.8,0,1.4-0.4,1.6-1.1l9.2-24.8l5.1,24.6c0.2,0.8,0.7,1.3,1.6,1.3h0.4c0.6,0,0.9-0.2,1.1-0.5    c0.2-0.2,0.4-0.6,0.3-1.2L125.9,200.6z"></path>
		<path class="st5" d="M156.4,200.4L156.4,200.4c-0.3-0.7-0.9-1.1-1.6-1.1h-0.5c-0.7,0-1.3,0.4-1.6,1.1L139.8,229    c-0.2,0.5-0.2,1,0,1.3c0.2,0.3,0.7,0.5,1.2,0.5h0.5c0.7,0,1.3-0.4,1.6-1.1l2.8-6.3h17.4l2.8,6.3c0.3,0.7,0.9,1.1,1.6,1.1h0.5    c0.5,0,0.9-0.2,1.2-0.5c0.2-0.4,0.2-0.8,0-1.3L156.4,200.4z M161.8,220.4h-14.6l7.3-16.6L161.8,220.4z"></path>
		<path class="st5" d="M196.4,227.7h-13.7v-26.8c0-0.9-0.6-1.5-1.5-1.5h-0.3c-0.9,0-1.5,0.6-1.5,1.5v28.6c0,0.9,0.6,1.5,1.5,1.5    h15.5c0.9,0,1.5-0.6,1.5-1.5v-0.2C197.9,228.2,197.3,227.7,196.4,227.7z"></path>
		<path class="st5" d="M245.7,209.3c0-5.2-1.8-10-14.6-10h-7c-0.9,0-1.5,0.6-1.5,1.5v28.6c0,0.9,0.6,1.5,1.5,1.5h0.3    c0.9,0,1.5-0.6,1.5-1.5v-10h5.1c0.8,0,1.7,0,2.4-0.1l8.2,10.7c0.4,0.6,0.9,0.8,1.6,0.8h0.7c0.8,0,1.1-0.3,1.3-0.6    c0.1-0.3,0.2-0.7-0.3-1.4l-7.7-10C243.1,217.8,245.7,214.8,245.7,209.3z M242.4,209.4c0,5.8-4,6.8-11.2,6.8H226v-13.7h5.1    C238.4,202.5,242.4,203.6,242.4,209.4z"></path>
		<path class="st5" d="M276.9,199.3h-17.5c-0.9,0-1.5,0.6-1.5,1.5v28.6c0,0.9,0.6,1.5,1.5,1.5h17.5c0.9,0,1.5-0.6,1.5-1.5v-0.2    c0-0.9-0.6-1.5-1.5-1.5h-15.7v-11.3h14.9c0.9,0,1.5-0.6,1.5-1.5v-0.2c0-0.9-0.6-1.5-1.5-1.5h-14.9v-10.6h15.7    c0.9,0,1.5-0.6,1.5-1.5v-0.2C278.4,199.9,277.8,199.3,276.9,199.3z"></path>
		<path class="st5" d="M301.2,213.4c-4.9-1-9.1-1.8-9.1-5.9c0-3.2,3.2-5.4,7.8-5.4c4.3,0,7.2,1.3,9.1,4.1c0.5,0.8,1.2,1,1.9,0.7    l0.3-0.1c0.6-0.2,0.8-0.6,0.9-0.8c0.1-0.3,0.1-0.7-0.2-1.2c-2.2-3.8-6.5-5.8-12-5.8c-6.4,0-11.1,3.6-11.1,8.6    c0,6.6,6.2,7.8,11.6,9c4.7,1,9.1,1.9,9.1,5.9c0,3.5-3.5,5.9-8.6,5.9c-4.5,0-8.2-1.7-10-4.7c-0.5-0.8-1.1-1-1.9-0.7l-0.3,0.1    c-0.5,0.2-0.8,0.5-0.9,0.9c-0.1,0.3,0,0.7,0.2,1.1c2.3,4,7.1,6.4,13,6.4l0.1,0v0c6.9,0,11.8-3.7,11.8-8.9    C312.8,215.7,306.6,214.5,301.2,213.4z"></path>
		<path class="st5" d="M350.1,220.1l-0.3-0.1c-0.8-0.2-1.5,0.2-1.8,1c-1.6,4.6-5.2,7.2-10.1,7.2c-7.1,0-11.3-4.8-11.3-12.9    c0-7.9,4.4-13,11.3-13c4.8,0,8.4,2.4,10.1,6.9c0.4,0.8,1,1.2,1.8,1l0.3-0.1c0.5-0.1,0.8-0.4,1-0.7c0.1-0.2,0.2-0.6,0-1.2    c-2-5.7-7-9.1-13.2-9.1c-7.3,0-14.6,5-14.6,16.2c0,7.5,3.8,16.2,14.6,16.2c6.3,0,11.2-3.4,13.2-9.1c0.3-0.7,0.1-1.2,0-1.5    C350.8,220.4,350.5,220.2,350.1,220.1z"></path>
		<path class="st5" d="M387.2,199.3h-0.3c-0.9,0-1.5,0.6-1.5,1.5V216c0,8.5-2.8,12.1-9.5,12.1s-9.5-3.6-9.5-12.1v-15.2    c0-0.9-0.6-1.5-1.5-1.5h-0.3c-0.9,0-1.5,0.6-1.5,1.5V216c0,10.2,4.3,15.3,12.8,15.3c8.5,0,12.8-5.2,12.8-15.3v-15.2    C388.7,199.9,388.1,199.3,387.2,199.3z"></path>
		<path class="st5" d="M420.5,202.6c0.9,0,1.5-0.6,1.5-1.5v-0.2c0-0.9-0.6-1.5-1.5-1.5H403c-0.9,0-1.5,0.6-1.5,1.5v28.6    c0,0.9,0.6,1.5,1.5,1.5h17.5c0.9,0,1.5-0.6,1.5-1.5v-0.2c0-0.9-0.6-1.5-1.5-1.5h-15.7v-11.3h14.9c0.9,0,1.5-0.6,1.5-1.5v-0.2    c0-0.9-0.6-1.5-1.5-1.5h-14.9v-10.6H420.5z"></path>
	</g>
</g>
</svg>
