<svg width="512" height="512" viewBox="0 0 512 512" fill="none" xmlns="http://www.w3.org/2000/svg">
<g clip-path="url(#clip0_78_3)">
<rect width="512" height="512" fill="#FFFCEA"/>
<path d="M123 237C123 223.745 133.745 213 147 213H363C376.255 213 387 223.745 387 237V510C387 523.255 376.255 534 363 534H147C133.745 534 123 523.255 123 510V237Z" fill="#21201F"/>
<path d="M175.85 250.8H185.39V321H175.85V250.8ZM200.6 279.6H212.48L194.66 296.7L214.28 321H202.49L182.69 296.7L200.6 279.6ZM206.789 279.6H217.409L228.209 306.33L239.009 279.6H249.719L228.209 324.78L206.789 279.6ZM242.214 308.94L277.764 258H284.154V321H273.264V305.16L273.894 304.17V276.99L257.784 300.57H279.654L281.184 299.76H294.054V308.94H242.214Z" fill="#FFFCEA"/>
<path d="M303.66 339.8H293.85V278.6H303.66V339.8ZM337.95 299.3C337.95 303.86 337.02 307.79 335.16 311.09C333.3 314.33 330.84 316.82 327.78 318.56C324.72 320.24 321.39 321.08 317.79 321.08C314.25 321.08 311.16 320.21 308.52 318.47C305.94 316.67 303.93 314.15 302.49 310.91C301.11 307.61 300.42 303.74 300.42 299.3C300.42 294.8 301.11 290.93 302.49 287.69C303.93 284.45 305.94 281.96 308.52 280.22C311.16 278.42 314.25 277.52 317.79 277.52C321.39 277.52 324.72 278.39 327.78 280.13C330.84 281.81 333.3 284.27 335.16 287.51C337.02 290.75 337.95 294.68 337.95 299.3ZM327.87 299.3C327.87 296.54 327.3 294.2 326.16 292.28C325.02 290.3 323.49 288.83 321.57 287.87C319.71 286.85 317.64 286.34 315.36 286.34C313.5 286.34 311.67 286.85 309.87 287.87C308.07 288.83 306.57 290.27 305.37 292.19C304.23 294.11 303.66 296.48 303.66 299.3C303.66 302.12 304.23 304.49 305.37 306.41C306.57 308.33 308.07 309.8 309.87 310.82C311.67 311.78 313.5 312.26 315.36 312.26C317.64 312.26 319.71 311.78 321.57 310.82C323.49 309.8 325.02 308.33 326.16 306.41C327.3 304.43 327.87 302.06 327.87 299.3Z" fill="#FFFCEA"/>
<path d="M189 43C189 34.7157 182.284 28 174 28C165.716 28 159 34.7157 159 43L189 43ZM189 203L189 43L159 43L159 203L189 203Z" fill="#21201F"/>
<path d="M352.5 195C352.5 182.574 342.426 172.5 330 172.5C317.574 172.5 307.5 182.574 307.5 195L352.5 195ZM352.5 203L352.5 195L307.5 195L307.5 203L352.5 203Z" fill="#21201F"/>
</g>
<defs>
<clipPath id="clip0_78_3">
<rect width="512" height="512" fill="white"/>
</clipPath>
</defs>
</svg>
