<svg width="296" height="131" viewBox="0 0 296 131" fill="none" xmlns="http://www.w3.org/2000/svg">
<path d="M5.85 26.8H15.39V97H5.85V26.8ZM30.6 55.6H42.48L24.66 72.7L44.28 97H32.49L12.69 72.7L30.6 55.6ZM36.7889 55.6H47.4089L58.2089 82.33L69.0089 55.6H79.7189L58.2089 100.78L36.7889 55.6ZM72.2138 84.94L107.764 34H114.154V97H103.264V81.16L103.894 80.17V52.99L87.7838 76.57H109.654L111.184 75.76H124.054V84.94H72.2138Z" fill="#FFFCEA"/>
<path d="M133.66 115.8H123.85V54.6H133.66V115.8ZM167.95 75.3C167.95 79.86 167.02 83.79 165.16 87.09C163.3 90.33 160.84 92.82 157.78 94.56C154.72 96.24 151.39 97.08 147.79 97.08C144.25 97.08 141.16 96.21 138.52 94.47C135.94 92.67 133.93 90.15 132.49 86.91C131.11 83.61 130.42 79.74 130.42 75.3C130.42 70.8 131.11 66.93 132.49 63.69C133.93 60.45 135.94 57.96 138.52 56.22C141.16 54.42 144.25 53.52 147.79 53.52C151.39 53.52 154.72 54.39 157.78 56.13C160.84 57.81 163.3 60.27 165.16 63.51C167.02 66.75 167.95 70.68 167.95 75.3ZM157.87 75.3C157.87 72.54 157.3 70.2 156.16 68.28C155.02 66.3 153.49 64.83 151.57 63.87C149.71 62.85 147.64 62.34 145.36 62.34C143.5 62.34 141.67 62.85 139.87 63.87C138.07 64.83 136.57 66.27 135.37 68.19C134.23 70.11 133.66 72.48 133.66 75.3C133.66 78.12 134.23 80.49 135.37 82.41C136.57 84.33 138.07 85.8 139.87 86.82C141.67 87.78 143.5 88.26 145.36 88.26C147.64 88.26 149.71 87.78 151.57 86.82C153.49 85.8 155.02 84.33 156.16 82.41C157.3 80.43 157.87 78.06 157.87 75.3Z" fill="#FFFCEA"/>
<path d="M194.25 67.11V57.3H239.16V67.11H194.25ZM232.32 33H242.94V96H232.32V33ZM190.02 33H200.64V96H190.02V33ZM250.693 42.81V33H294.613V42.81H277.963V96H267.253V42.81H250.693Z" fill="#FFFCEA"/>
</svg>
